<svg id="Layer_1" data-name="Layer 1" xmlns="http://www.w3.org/2000/svg" viewBox="0 0 883.71 102.93"><title>logo</title><path d="M14.29,48.74H64v8.48H24.36V81.28H59.13v8.48H24.36v34.67H14.29Z" transform="translate(-14.29 -23.29)"/><path d="M83.83,48.74H95l29.57,75.69H113.4l-8.27-22.8h-32l-8.48,22.8H54.25ZM76.3,93.15H102L89.34,57.86h-.21Z" transform="translate(-14.29 -23.29)"/><path d="M125.91,48.74h27.45c6.68,0,15.48,0,20,2.76a18,18,0,0,1,8.9,15.79c0,8.06-4.24,14.1-11.24,17v.21c9.33,1.91,14.42,8.91,14.42,18.24,0,11.13-7.95,21.73-23,21.73H125.91ZM136,81.28h20.14c11.45,0,16.11-4.13,16.11-12.08,0-10.5-7.42-12-16.11-12H136ZM136,116h25.23c8.69,0,14.2-5.3,14.2-13.57,0-9.86-7.95-12.62-16.43-12.62H136Z" transform="translate(-14.29 -23.29)"/><path d="M192.47,48.74h35.62c14.21,0,23,7.74,23,19.82,0,9.12-4,16.64-13.14,19.19V88c8.8,1.7,10.6,8.16,11.34,15.58s.21,15.69,4.45,20.89H242.51c-2.86-3.08-1.27-11.24-2.76-18.66-1.06-7.42-2.86-13.68-12.61-13.68h-24.6v32.34H192.47Zm31.06,34.87C233,83.61,241,81.18,241,70.15c0-7.42-4-12.93-13.46-12.93h-25V83.61Z" transform="translate(-14.29 -23.29)"/><path d="M259.47,48.74h10.07v75.69H259.47Z" transform="translate(-14.29 -23.29)"/><path d="M274.52,116l47.06-58.73H278.12V48.74h55.33v8.48l-47,58.73h48.24v8.48H274.52Z" transform="translate(-14.29 -23.29)"/><path d="M339.6,48.74h10.07v75.69H339.6Z" transform="translate(-14.29 -23.29)"/><path d="M392.6,46.94c24.06,0,36.25,19.08,36.25,39.64s-12.19,39.65-36.25,39.65-36.25-19.08-36.25-39.65S368.54,46.94,392.6,46.94Zm0,70.81c18.44,0,26.18-15.9,26.18-31.17S411,55.42,392.6,55.42s-26.18,15.9-26.18,31.16S374.15,117.75,392.6,117.75Z" transform="translate(-14.29 -23.29)"/><path d="M436.82,23.29h26c23.32,0,36.36,11.66,36.36,36C499.15,84.67,488,99,462.79,99h-26ZM446.89,90.5h16.75c6.89,0,25.44-1.91,25.44-29.79,0-18-6.68-28.94-25.23-28.94h-17Z" transform="translate(-14.29 -23.29)"/><path d="M505.4,23.29h52.26v8.48H515.47V55.84H554.8v8.48H515.47V90.5H558V99H505.4Z" transform="translate(-14.29 -23.29)"/><path d="M586.56,43.51h11.13l29.57,75.68H616.13L607.86,96.4h-32l-8.48,22.79H557ZM579,87.92h25.65l-12.61-35.3h-.21Z" transform="translate(-14.29 -23.29)"/><path d="M627.47,43.51h10.71L678,104.88h.21V43.51h9.54v75.68h-11L637.22,58.45H637v60.74h-9.54Z" transform="translate(-14.29 -23.29)"/><path d="M697,43.51h26c23.32,0,36.35,11.66,36.35,36,0,25.33-11.12,39.64-36.35,39.64H697Zm10.07,67.2h16.74c6.89,0,25.45-1.91,25.45-29.79,0-18-6.68-28.93-25.23-28.93h-17Z" transform="translate(-14.29 -23.29)"/><path d="M764.53,43.51h35.61c14.21,0,23,7.73,23,19.82,0,9.12-4,16.64-13.15,19.19v.21c8.8,1.69,10.6,8.16,11.34,15.58s.22,15.69,4.46,20.88H814.56c-2.86-3.07-1.27-11.23-2.76-18.65-1.06-7.42-2.86-13.68-12.61-13.68H774.6v32.33H764.53Zm31.06,34.87c9.43,0,17.49-2.44,17.49-13.46,0-7.42-4-12.93-13.47-12.93h-25V78.38Z" transform="translate(-14.29 -23.29)"/><path d="M830,43.51h52.25V52H840.11V76.05h39.32v8.48H840.11v26.18h42.5v8.48H830Z" transform="translate(-14.29 -23.29)"/><path d="M889.45,42.26H898v8.55c0,6.08-2.54,11.31-8.47,11.31V58.27c3.47,0,4.47-3.92,4.47-7.46h-4.55Z" transform="translate(-14.29 -23.29)"/></svg>