<svg id="Layer_1" data-name="Layer 1" xmlns="http://www.w3.org/2000/svg" viewBox="0 0 883.71 137.3"><title>logo2</title><path d="M8.27,37.74H58v8.48H18.34V70.28H53.11v8.48H18.34v34.67H8.27Z" transform="translate(-8.27 -12.29)"/><path d="M77.8,37.74H88.93l29.58,75.69H107.38L99.11,90.64h-32l-8.48,22.79H48.23ZM70.28,82.16H95.93L83.32,46.86H83.1Z" transform="translate(-8.27 -12.29)"/><path d="M119.89,37.74h27.45c6.68,0,15.48,0,20,2.76a17.93,17.93,0,0,1,8.91,15.79c0,8.06-4.24,14.1-11.24,17v.21c9.33,1.91,14.42,8.91,14.42,18.24,0,11.13-8,21.73-23,21.73H119.89ZM130,70.28H150.1c11.44,0,16.11-4.13,16.11-12.08,0-10.49-7.42-12-16.11-12H130ZM130,105h25.22c8.7,0,14.21-5.3,14.21-13.57,0-9.86-7.95-12.62-16.43-12.62H130Z" transform="translate(-8.27 -12.29)"/><path d="M186.45,37.74h35.62c14.2,0,23,7.74,23,19.82,0,9.12-4,16.65-13.14,19.19V77c8.8,1.7,10.6,8.16,11.34,15.58s.21,15.69,4.45,20.89H236.49c-2.87-3.08-1.28-11.24-2.76-18.66-1.06-7.42-2.86-13.67-12.61-13.67h-24.6v32.33H186.45Zm31.06,34.88C227,72.62,235,70.18,235,59.15c0-7.42-4-12.93-13.46-12.93h-25v26.4Z" transform="translate(-8.27 -12.29)"/><path d="M253.44,37.74h10.08v75.69H253.44Z" transform="translate(-8.27 -12.29)"/><path d="M268.5,105l47.06-58.73H272.1V37.74h55.33v8.48l-47,58.73H328.7v8.48H268.5Z" transform="translate(-8.27 -12.29)"/><path d="M333.58,37.74h10.07v75.69H333.58Z" transform="translate(-8.27 -12.29)"/><path d="M386.58,35.94c24.06,0,36.25,19.08,36.25,39.64s-12.19,39.65-36.25,39.65-36.25-19.08-36.25-39.65S362.52,35.94,386.58,35.94Zm0,70.81c18.44,0,26.18-15.9,26.18-31.17S405,44.42,386.58,44.42,360.4,60.32,360.4,75.58,368.13,106.75,386.58,106.75Z" transform="translate(-8.27 -12.29)"/><path d="M430.8,12.29h26c23.32,0,36.36,11.66,36.36,36C493.13,73.67,482,88,456.77,88h-26ZM440.87,79.5h16.75c6.89,0,25.44-1.91,25.44-29.79,0-18-6.68-28.94-25.23-28.94h-17Z" transform="translate(-8.27 -12.29)"/><path d="M499.38,12.29h52.26v8.48H509.45V44.84h39.33v8.48H509.45V79.5H552V88H499.38Z" transform="translate(-8.27 -12.29)"/><path d="M580.54,32.51h11.13l29.57,75.68H610.11L601.84,85.4h-32l-8.48,22.79H551ZM573,76.92h25.65l-12.61-35.3h-.21Z" transform="translate(-8.27 -12.29)"/><path d="M621.45,32.51h10.71L672,93.88h.22V32.51h9.54v75.68h-11L631.2,47.45H631v60.74h-9.54Z" transform="translate(-8.27 -12.29)"/><path d="M691,32.51h26c23.32,0,36.35,11.66,36.35,36,0,25.33-11.13,39.64-36.35,39.64H691Zm10.08,67.2H717.8c6.89,0,25.44-1.91,25.44-29.78,0-18-6.67-28.94-25.22-28.94h-17Z" transform="translate(-8.27 -12.29)"/><path d="M758.51,32.51h35.61c14.21,0,23,7.74,23,19.82,0,9.12-4,16.64-13.15,19.19v.21c8.8,1.69,10.6,8.16,11.34,15.58s.22,15.69,4.46,20.88H808.54c-2.86-3.07-1.27-11.23-2.76-18.65-1.06-7.42-2.86-13.68-12.61-13.68H768.58v32.33H758.51Zm31,34.87c9.44,0,17.5-2.44,17.5-13.46,0-7.42-4-12.93-13.47-12.93h-25V67.38Z" transform="translate(-8.27 -12.29)"/><path d="M824,32.51h52.26V41H834.08V65.05h39.33v8.48H834.08V99.71h42.51v8.48H824Z" transform="translate(-8.27 -12.29)"/><path d="M883.43,31.26H892v8.55c0,6.08-2.54,11.31-8.47,11.31V47.27c3.47,0,4.47-3.92,4.47-7.46h-4.55Z" transform="translate(-8.27 -12.29)"/><path d="M120.32,149.17h-3.06V130.88h-6.62v-2.45c3.49,0,6.66-.93,7.34-4.78h2.34Z" transform="translate(-8.27 -12.29)"/><path d="M179.14,143c.22,2.49,2.24,3.89,4.68,3.89,3.75,0,5.58-3.28,5.76-9.86l-.07-.08a6.69,6.69,0,0,1-5.9,3.53c-5.19,0-8.07-3.49-8.07-8.53a8,8,0,0,1,8.39-8.31c4.75,0,8.75,2.55,8.75,12.2,0,8.82-2.66,13.75-8.86,13.75-4.28,0-7.34-2.2-7.74-6.59Zm4.65-16.67c-3.64,0-5,2.92-5,6a5.23,5.23,0,0,0,5,5.4c3.21,0,5.22-2.59,5.22-5.61S187.21,126.34,183.79,126.34Z" transform="translate(-8.27 -12.29)"/><path d="M256.22,140.49h3.45v2.7h-3.45v6h-2.88v-6H242.15v-2.95l11.62-16.59h2.45Zm-2.88,0V128h-.07l-8.5,12.49Z" transform="translate(-8.27 -12.29)"/><path d="M318,123.65c8,0,8.49,7.34,8.49,13s-.5,13-8.49,13-8.5-7.35-8.5-13S310,123.65,318,123.65Zm0,23.25c5.22,0,5.26-6.48,5.26-10.3s0-10.26-5.26-10.26-5.26,6.48-5.26,10.26S312.74,146.9,318,146.9Z" transform="translate(-8.27 -12.29)"/><path d="M433.38,137.72h10.4v2.88h-10.4Z" transform="translate(-8.27 -12.29)"/><path d="M562,149.17h-3.06V130.88h-6.62v-2.45c3.49,0,6.66-.93,7.34-4.78H562Z" transform="translate(-8.27 -12.29)"/><path d="M620.83,143c.21,2.49,2.23,3.89,4.68,3.89,3.74,0,5.58-3.28,5.76-9.86l-.07-.08a6.7,6.7,0,0,1-5.91,3.53c-5.18,0-8.06-3.49-8.06-8.53a8,8,0,0,1,8.39-8.31c4.75,0,8.74,2.55,8.74,12.2,0,8.82-2.66,13.75-8.85,13.75-4.28,0-7.34-2.2-7.74-6.59Zm4.64-16.67c-3.63,0-5,2.92-5,6a5.23,5.23,0,0,0,5,5.4c3.2,0,5.22-2.59,5.22-5.61S628.89,126.34,625.47,126.34Z" transform="translate(-8.27 -12.29)"/><path d="M687.64,143c.22,2.49,2.24,3.89,4.68,3.89,3.75,0,5.58-3.28,5.76-9.86L698,137a6.69,6.69,0,0,1-5.9,3.53c-5.19,0-8.07-3.49-8.07-8.53a8,8,0,0,1,8.39-8.31c4.75,0,8.75,2.55,8.75,12.2,0,8.82-2.66,13.75-8.86,13.75-4.28,0-7.34-2.2-7.74-6.59Zm4.65-16.67c-3.64,0-5,2.92-5,6a5.23,5.23,0,0,0,5,5.4c3.21,0,5.22-2.59,5.22-5.61S695.71,126.34,692.29,126.34Z" transform="translate(-8.27 -12.29)"/><path d="M754.46,143c.22,2.49,2.23,3.89,4.68,3.89,3.74,0,5.58-3.28,5.76-9.86l-.07-.08a6.69,6.69,0,0,1-5.91,3.53c-5.18,0-8.06-3.49-8.06-8.53a8,8,0,0,1,8.39-8.31c4.75,0,8.74,2.55,8.74,12.2,0,8.82-2.66,13.75-8.85,13.75-4.28,0-7.34-2.2-7.74-6.59Zm4.64-16.67c-3.63,0-5,2.92-5,6a5.23,5.23,0,0,0,5,5.4c3.2,0,5.22-2.59,5.22-5.61S762.52,126.34,759.1,126.34Z" transform="translate(-8.27 -12.29)"/></svg>